<svg id="visual" viewBox="0 0 900 600" width="900" height="600" xmlns="http://www.w3.org/2000/svg" xmlns:xlink="http://www.w3.org/1999/xlink" version="1.1"><g stroke-width="1" stroke-linejoin="bevel"><path d="M451 305L502 346L517 285Z" fill="#277297" stroke="#277297"></path><path d="M591 233L529 239L517 285Z" fill="#297ea6" stroke="#297ea6"></path><path d="M517 285L469 202L451 305Z" fill="#19435d" stroke="#19435d"></path><path d="M451 305L440 386L502 346Z" fill="#205a7a" stroke="#205a7a"></path><path d="M527 421L574 357L502 346Z" fill="#112e42" stroke="#112e42"></path><path d="M502 346L574 357L517 285Z" fill="#19435d" stroke="#19435d"></path><path d="M529 239L469 202L517 285Z" fill="#205a7a" stroke="#205a7a"></path><path d="M440 386L527 421L502 346Z" fill="#277297" stroke="#277297"></path><path d="M469 202L387 251L451 305Z" fill="#297ea6" stroke="#297ea6"></path><path d="M451 305L370 362L440 386Z" fill="#081a28" stroke="#081a28"></path><path d="M628 301L591 233L517 285Z" fill="#297ea6" stroke="#297ea6"></path><path d="M529 239L504 142L469 202Z" fill="#277297" stroke="#277297"></path><path d="M387 251L360 300L451 305Z" fill="#277297" stroke="#277297"></path><path d="M360 300L370 362L451 305Z" fill="#112e42" stroke="#112e42"></path><path d="M440 386L465 450L527 421Z" fill="#0c2435" stroke="#0c2435"></path><path d="M648 384L628 301L574 357Z" fill="#297ea6" stroke="#297ea6"></path><path d="M574 357L628 301L517 285Z" fill="#1d4e6b" stroke="#1d4e6b"></path><path d="M382 445L465 450L440 386Z" fill="#112e42" stroke="#112e42"></path><path d="M504 142L437 159L469 202Z" fill="#1d4e6b" stroke="#1d4e6b"></path><path d="M469 202L437 159L387 251Z" fill="#112e42" stroke="#112e42"></path><path d="M387 251L317 283L360 300Z" fill="#1d4e6b" stroke="#1d4e6b"></path><path d="M591 233L504 142L529 239Z" fill="#0c2435" stroke="#0c2435"></path><path d="M327 397L382 445L370 362Z" fill="#1d4e6b" stroke="#1d4e6b"></path><path d="M370 362L382 445L440 386Z" fill="#15384f" stroke="#15384f"></path><path d="M279 252L317 283L387 251Z" fill="#00101c" stroke="#00101c"></path><path d="M360 300L317 283L370 362Z" fill="#00101c" stroke="#00101c"></path><path d="M622 446L574 357L527 421Z" fill="#277297" stroke="#277297"></path><path d="M622 446L648 384L574 357Z" fill="#15384f" stroke="#15384f"></path><path d="M628 301L646 219L591 233Z" fill="#1d4e6b" stroke="#1d4e6b"></path><path d="M591 233L622 173L504 142Z" fill="#277297" stroke="#277297"></path><path d="M702 273L646 219L628 301Z" fill="#00101c" stroke="#00101c"></path><path d="M317 283L327 397L370 362Z" fill="#0c2435" stroke="#0c2435"></path><path d="M391 49L374 162L437 159Z" fill="#277297" stroke="#277297"></path><path d="M437 159L374 162L387 251Z" fill="#277297" stroke="#277297"></path><path d="M572 521L622 446L527 421Z" fill="#15384f" stroke="#15384f"></path><path d="M646 219L622 173L591 233Z" fill="#15384f" stroke="#15384f"></path><path d="M372 517L476 516L465 450Z" fill="#1d4e6b" stroke="#1d4e6b"></path><path d="M465 450L511 521L527 421Z" fill="#1d4e6b" stroke="#1d4e6b"></path><path d="M476 516L511 521L465 450Z" fill="#205a7a" stroke="#205a7a"></path><path d="M741 363L702 273L648 384Z" fill="#081a28" stroke="#081a28"></path><path d="M648 384L702 273L628 301Z" fill="#00101c" stroke="#00101c"></path><path d="M646 219L681 167L622 173Z" fill="#246688" stroke="#246688"></path><path d="M374 162L279 252L387 251Z" fill="#0c2435" stroke="#0c2435"></path><path d="M317 283L214 301L327 397Z" fill="#19435d" stroke="#19435d"></path><path d="M511 521L572 521L527 421Z" fill="#297ea6" stroke="#297ea6"></path><path d="M681 167L583 98L622 173Z" fill="#246688" stroke="#246688"></path><path d="M622 173L583 98L504 142Z" fill="#112e42" stroke="#112e42"></path><path d="M504 142L473 69L437 159Z" fill="#297ea6" stroke="#297ea6"></path><path d="M299 453L372 517L382 445Z" fill="#277297" stroke="#277297"></path><path d="M382 445L372 517L465 450Z" fill="#15384f" stroke="#15384f"></path><path d="M476 516L455 600L511 521Z" fill="#205a7a" stroke="#205a7a"></path><path d="M327 397L299 453L382 445Z" fill="#00101c" stroke="#00101c"></path><path d="M237 429L299 453L327 397Z" fill="#19435d" stroke="#19435d"></path><path d="M657 506L683 449L622 446Z" fill="#15384f" stroke="#15384f"></path><path d="M622 446L683 449L648 384Z" fill="#277297" stroke="#277297"></path><path d="M729 248L681 167L646 219Z" fill="#205a7a" stroke="#205a7a"></path><path d="M547 69L473 69L504 142Z" fill="#246688" stroke="#246688"></path><path d="M702 273L729 248L646 219Z" fill="#15384f" stroke="#15384f"></path><path d="M757 317L729 248L702 273Z" fill="#00101c" stroke="#00101c"></path><path d="M506 0L547 69L595 0Z" fill="#0c2435" stroke="#0c2435"></path><path d="M583 98L547 69L504 142Z" fill="#297ea6" stroke="#297ea6"></path><path d="M683 449L741 363L648 384Z" fill="#246688" stroke="#246688"></path><path d="M572 521L657 506L622 446Z" fill="#00101c" stroke="#00101c"></path><path d="M683 449L751 470L741 363Z" fill="#00101c" stroke="#00101c"></path><path d="M391 49L297 129L374 162Z" fill="#19435d" stroke="#19435d"></path><path d="M374 162L297 129L279 252Z" fill="#081a28" stroke="#081a28"></path><path d="M741 363L757 317L702 273Z" fill="#112e42" stroke="#112e42"></path><path d="M229 201L214 301L279 252Z" fill="#112e42" stroke="#112e42"></path><path d="M279 252L214 301L317 283Z" fill="#297ea6" stroke="#297ea6"></path><path d="M201 370L237 429L327 397Z" fill="#112e42" stroke="#112e42"></path><path d="M299 453L276 546L372 517Z" fill="#297ea6" stroke="#297ea6"></path><path d="M456 0L391 49L473 69Z" fill="#277297" stroke="#277297"></path><path d="M473 69L391 49L437 159Z" fill="#1d4e6b" stroke="#1d4e6b"></path><path d="M297 129L229 201L279 252Z" fill="#277297" stroke="#277297"></path><path d="M358 600L455 600L372 517Z" fill="#205a7a" stroke="#205a7a"></path><path d="M372 517L455 600L476 516Z" fill="#1d4e6b" stroke="#1d4e6b"></path><path d="M511 521L541 600L572 521Z" fill="#112e42" stroke="#112e42"></path><path d="M572 521L647 600L657 506Z" fill="#297ea6" stroke="#297ea6"></path><path d="M214 301L201 370L327 397Z" fill="#1d4e6b" stroke="#1d4e6b"></path><path d="M156 349L201 370L214 301Z" fill="#205a7a" stroke="#205a7a"></path><path d="M729 248L725 135L681 167Z" fill="#15384f" stroke="#15384f"></path><path d="M681 167L683 48L583 98Z" fill="#297ea6" stroke="#297ea6"></path><path d="M804 132L725 135L729 248Z" fill="#15384f" stroke="#15384f"></path><path d="M455 600L541 600L511 521Z" fill="#277297" stroke="#277297"></path><path d="M541 600L581 600L572 521Z" fill="#0c2435" stroke="#0c2435"></path><path d="M391 49L293 74L297 129Z" fill="#0c2435" stroke="#0c2435"></path><path d="M297 129L213 156L229 201Z" fill="#112e42" stroke="#112e42"></path><path d="M728 527L683 449L657 506Z" fill="#15384f" stroke="#15384f"></path><path d="M728 527L751 470L683 449Z" fill="#081a28" stroke="#081a28"></path><path d="M849 388L848 325L757 317Z" fill="#112e42" stroke="#112e42"></path><path d="M547 69L506 0L473 69Z" fill="#19435d" stroke="#19435d"></path><path d="M391 49L322 0L293 74Z" fill="#205a7a" stroke="#205a7a"></path><path d="M595 0L547 69L583 98Z" fill="#0c2435" stroke="#0c2435"></path><path d="M506 0L456 0L473 69Z" fill="#00101c" stroke="#00101c"></path><path d="M218 55L213 156L297 129Z" fill="#19435d" stroke="#19435d"></path><path d="M158 236L157 309L214 301Z" fill="#112e42" stroke="#112e42"></path><path d="M230 500L299 453L237 429Z" fill="#277297" stroke="#277297"></path><path d="M230 500L276 546L299 453Z" fill="#0c2435" stroke="#0c2435"></path><path d="M316 600L358 600L372 517Z" fill="#246688" stroke="#246688"></path><path d="M157 461L230 500L237 429Z" fill="#0c2435" stroke="#0c2435"></path><path d="M647 600L728 527L657 506Z" fill="#00101c" stroke="#00101c"></path><path d="M456 0L388 0L391 49Z" fill="#297ea6" stroke="#297ea6"></path><path d="M725 135L683 48L681 167Z" fill="#1d4e6b" stroke="#1d4e6b"></path><path d="M650 0L595 0L583 98Z" fill="#112e42" stroke="#112e42"></path><path d="M581 600L647 600L572 521Z" fill="#0c2435" stroke="#0c2435"></path><path d="M158 236L214 301L229 201Z" fill="#277297" stroke="#277297"></path><path d="M201 370L157 461L237 429Z" fill="#0c2435" stroke="#0c2435"></path><path d="M157 309L156 349L214 301Z" fill="#00101c" stroke="#00101c"></path><path d="M234 600L316 600L276 546Z" fill="#1d4e6b" stroke="#1d4e6b"></path><path d="M276 546L316 600L372 517Z" fill="#205a7a" stroke="#205a7a"></path><path d="M213 156L158 236L229 201Z" fill="#19435d" stroke="#19435d"></path><path d="M157 309L101 286L156 349Z" fill="#297ea6" stroke="#297ea6"></path><path d="M840 501L805 449L751 470Z" fill="#297ea6" stroke="#297ea6"></path><path d="M751 470L805 449L741 363Z" fill="#00101c" stroke="#00101c"></path><path d="M757 317L843 251L729 248Z" fill="#277297" stroke="#277297"></path><path d="M683 48L650 0L583 98Z" fill="#0c2435" stroke="#0c2435"></path><path d="M388 0L322 0L391 49Z" fill="#297ea6" stroke="#297ea6"></path><path d="M293 74L218 55L297 129Z" fill="#112e42" stroke="#112e42"></path><path d="M848 325L843 251L757 317Z" fill="#297ea6" stroke="#297ea6"></path><path d="M725 135L746 54L683 48Z" fill="#297ea6" stroke="#297ea6"></path><path d="M683 48L727 0L650 0Z" fill="#246688" stroke="#246688"></path><path d="M849 388L757 317L741 363Z" fill="#1d4e6b" stroke="#1d4e6b"></path><path d="M843 251L804 132L729 248Z" fill="#0c2435" stroke="#0c2435"></path><path d="M804 132L746 54L725 135Z" fill="#0c2435" stroke="#0c2435"></path><path d="M156 349L157 461L201 370Z" fill="#0c2435" stroke="#0c2435"></path><path d="M230 500L234 600L276 546Z" fill="#15384f" stroke="#15384f"></path><path d="M805 449L849 388L741 363Z" fill="#277297" stroke="#277297"></path><path d="M242 0L218 55L293 74Z" fill="#1d4e6b" stroke="#1d4e6b"></path><path d="M213 156L150 140L158 236Z" fill="#00101c" stroke="#00101c"></path><path d="M157 461L166 508L230 500Z" fill="#15384f" stroke="#15384f"></path><path d="M218 55L150 140L213 156Z" fill="#112e42" stroke="#112e42"></path><path d="M158 236L101 286L157 309Z" fill="#0c2435" stroke="#0c2435"></path><path d="M156 349L64 392L157 461Z" fill="#0c2435" stroke="#0c2435"></path><path d="M728 527L840 501L751 470Z" fill="#15384f" stroke="#15384f"></path><path d="M805 449L900 436L849 388Z" fill="#15384f" stroke="#15384f"></path><path d="M647 600L742 600L728 527Z" fill="#00101c" stroke="#00101c"></path><path d="M178 600L234 600L230 500Z" fill="#0c2435" stroke="#0c2435"></path><path d="M53 243L101 286L158 236Z" fill="#297ea6" stroke="#297ea6"></path><path d="M157 461L82 459L166 508Z" fill="#15384f" stroke="#15384f"></path><path d="M844 0L727 0L746 54Z" fill="#246688" stroke="#246688"></path><path d="M746 54L727 0L683 48Z" fill="#205a7a" stroke="#205a7a"></path><path d="M322 0L242 0L293 74Z" fill="#297ea6" stroke="#297ea6"></path><path d="M218 55L145 46L150 140Z" fill="#15384f" stroke="#15384f"></path><path d="M837 600L840 501L728 527Z" fill="#1d4e6b" stroke="#1d4e6b"></path><path d="M900 127L834 102L804 132Z" fill="#277297" stroke="#277297"></path><path d="M804 132L834 102L746 54Z" fill="#19435d" stroke="#19435d"></path><path d="M900 220L804 132L843 251Z" fill="#112e42" stroke="#112e42"></path><path d="M900 395L900 276L848 325Z" fill="#0c2435" stroke="#0c2435"></path><path d="M848 325L900 276L843 251Z" fill="#0c2435" stroke="#0c2435"></path><path d="M900 395L848 325L849 388Z" fill="#15384f" stroke="#15384f"></path><path d="M900 436L900 395L849 388Z" fill="#19435d" stroke="#19435d"></path><path d="M900 276L900 220L843 251Z" fill="#00101c" stroke="#00101c"></path><path d="M60 545L178 600L166 508Z" fill="#15384f" stroke="#15384f"></path><path d="M166 508L178 600L230 500Z" fill="#277297" stroke="#277297"></path><path d="M840 501L900 436L805 449Z" fill="#00101c" stroke="#00101c"></path><path d="M0 288L64 392L101 286Z" fill="#112e42" stroke="#112e42"></path><path d="M101 286L64 392L156 349Z" fill="#0c2435" stroke="#0c2435"></path><path d="M64 392L82 459L157 461Z" fill="#15384f" stroke="#15384f"></path><path d="M242 0L145 46L218 55Z" fill="#19435d" stroke="#19435d"></path><path d="M54 150L53 243L158 236Z" fill="#246688" stroke="#246688"></path><path d="M54 150L158 236L150 140Z" fill="#205a7a" stroke="#205a7a"></path><path d="M900 220L900 127L804 132Z" fill="#246688" stroke="#246688"></path><path d="M834 102L844 0L746 54Z" fill="#081a28" stroke="#081a28"></path><path d="M742 600L837 600L728 527Z" fill="#1d4e6b" stroke="#1d4e6b"></path><path d="M840 501L900 518L900 436Z" fill="#1d4e6b" stroke="#1d4e6b"></path><path d="M837 600L900 518L840 501Z" fill="#0c2435" stroke="#0c2435"></path><path d="M66 100L54 150L150 140Z" fill="#19435d" stroke="#19435d"></path><path d="M900 72L844 0L834 102Z" fill="#112e42" stroke="#112e42"></path><path d="M145 46L66 100L150 140Z" fill="#112e42" stroke="#112e42"></path><path d="M900 127L900 72L834 102Z" fill="#205a7a" stroke="#205a7a"></path><path d="M242 0L128 0L145 46Z" fill="#0c2435" stroke="#0c2435"></path><path d="M145 46L46 0L66 100Z" fill="#297ea6" stroke="#297ea6"></path><path d="M0 467L82 459L64 392Z" fill="#112e42" stroke="#112e42"></path><path d="M0 467L60 545L82 459Z" fill="#112e42" stroke="#112e42"></path><path d="M82 459L60 545L166 508Z" fill="#205a7a" stroke="#205a7a"></path><path d="M0 226L0 288L53 243Z" fill="#246688" stroke="#246688"></path><path d="M53 243L0 288L101 286Z" fill="#297ea6" stroke="#297ea6"></path><path d="M0 226L53 243L54 150Z" fill="#081a28" stroke="#081a28"></path><path d="M0 288L0 378L64 392Z" fill="#00101c" stroke="#00101c"></path><path d="M0 166L0 226L54 150Z" fill="#246688" stroke="#246688"></path><path d="M837 600L900 600L900 518Z" fill="#081a28" stroke="#081a28"></path><path d="M0 85L54 150L66 100Z" fill="#0c2435" stroke="#0c2435"></path><path d="M0 85L0 166L54 150Z" fill="#246688" stroke="#246688"></path><path d="M60 545L69 600L178 600Z" fill="#0c2435" stroke="#0c2435"></path><path d="M0 600L69 600L60 545Z" fill="#297ea6" stroke="#297ea6"></path><path d="M0 378L0 467L64 392Z" fill="#112e42" stroke="#112e42"></path><path d="M900 72L900 0L844 0Z" fill="#00101c" stroke="#00101c"></path><path d="M46 0L0 85L66 100Z" fill="#1d4e6b" stroke="#1d4e6b"></path><path d="M128 0L46 0L145 46Z" fill="#00101c" stroke="#00101c"></path><path d="M0 467L0 545L60 545Z" fill="#112e42" stroke="#112e42"></path><path d="M0 545L0 600L60 545Z" fill="#246688" stroke="#246688"></path><path d="M46 0L0 0L0 85Z" fill="#1d4e6b" stroke="#1d4e6b"></path></g></svg>