<svg id="visual" viewBox="0 0 900 600" width="900" height="600" xmlns="http://www.w3.org/2000/svg" xmlns:xlink="http://www.w3.org/1999/xlink" version="1.1"><path d="M0 181L180 229L360 229L540 163L720 193L900 217L900 0L720 0L540 0L360 0L180 0L0 0Z" fill="#00cc8e"></path><path d="M0 325L180 373L360 325L540 301L720 331L900 337L900 215L720 191L540 161L360 227L180 227L0 179Z" fill="#00b388"></path><path d="M0 421L180 457L360 439L540 379L720 427L900 427L900 335L720 329L540 299L360 323L180 371L0 323Z" fill="#009b7f"></path><path d="M0 601L180 601L360 601L540 601L720 601L900 601L900 425L720 425L540 377L360 437L180 455L0 419Z" fill="#038373"></path></svg>